<svg id="Layer_1" fill="#111827" data-name="Layer 1" xmlns="http://www.w3.org/2000/svg" viewBox="0 0 532.96 894"><path d="M125.75,375.39h0l.43-1Z" transform="translate(0.48)"/><path d="M-.48,0V894h533V0ZM125.8,375.39h0l.48-1Zm53.51-42.63h68l-12.29-28-.9-2.06-37.31-86.3L239.4,120,353.55,379.65Q371,419,382.22,429.25c5.67,5.11,13.62,8.12,23.94,8.94v9.24H242.66v-9.24h6.71c13.15,0,22.35-1.81,27.68-5.46,3.65-2.66,5.5-6.49,5.5-11.48a30.41,30.41,0,0,0-1.51-9.19q-.51-2.26-7.47-18.7l-11-25.75-.34-.77L255.6,351.2H171ZM406.2,468.88h-9.93q-13.59,0-21.7,4.77-5.67,3.15-9,10.83Q363,489.9,363.05,513V663q0,44.1-8.81,64.09t-31.33,33.43a94,94,0,0,1-8.56,4.52Q294.63,774,268.79,774q-24.56,0-43.11-8.21c22.23,0,43.46-7.65,52.14-15.09,4.26-3.31,7.22-8.47,8.94-15.47a53.77,53.77,0,0,0,1.12-7.57l0,0c.13-1.07.17-1.8.17-1.93v-.05q1.29-15.21,1.29-48.82V513c0-15.69-.9-25.49-2.62-29.4s-5.11-7.35-10.19-10.28-11.86-4.42-20.41-4.42h-12.9v-8.34H406.2Z" transform="translate(0.48)"/><path d="M125.75,375.39h0l.43-1Z" transform="translate(0.48)"/></svg>